<?xml version="1.0" encoding="UTF-8" standalone="no"?>
<!-- Generator: Adobe Illustrator 26.5.0, SVG Export Plug-In . SVG Version: 6.00 Build 0)  -->

<svg
   version="1.1"
   id="Layer_1"
   x="0px"
   y="0px"
   viewBox="0 0 2521 2911"
   style="enable-background:new 0 0 2521 2911;"
   xml:space="preserve"
   sodipodi:docname="ggradar.svg"
   inkscape:version="1.3 (0e150ed6c4, 2023-07-21)"
   inkscape:export-filename="eyelinkReader.png"
   inkscape:export-xdpi="96"
   inkscape:export-ydpi="96"
   xmlns:inkscape="http://www.inkscape.org/namespaces/inkscape"
   xmlns:sodipodi="http://sodipodi.sourceforge.net/DTD/sodipodi-0.dtd"
   xmlns:xlink="http://www.w3.org/1999/xlink"
   xmlns="http://www.w3.org/2000/svg"
   xmlns:svg="http://www.w3.org/2000/svg"><defs
   id="defs247"><rect
   x="412.5"
   y="1193.75"
   width="2818.75"
   height="531.25"
   id="rect248" />&#10;	&#10;	&#10;	&#10;	&#10;	&#10;	&#10;	&#10;	&#10;	&#10;	&#10;	&#10;	&#10;	&#10;	&#10;	&#10;	&#10;	&#10;	&#10;	&#10;	&#10;	&#10;	&#10;	&#10;	&#10;	&#10;	&#10;	&#10;	&#10;	&#10;	&#10;	&#10;	&#10;	&#10;	&#10;	&#10;	&#10;	&#10;	&#10;	&#10;	&#10;	&#10;	&#10;	&#10;	&#10;	&#10;	&#10;	&#10;	&#10;	&#10;	&#10;	&#10;	&#10;	&#10;	&#10;	&#10;	&#10;	&#10;	&#10;	&#10;	&#10;	&#10;	&#10;	&#10;	&#10;	&#10;	&#10;	&#10;	&#10;	&#10;	&#10;	&#10;	&#10;	&#10;	&#10;	&#10;	&#10;	&#10;	&#10;	&#10;	&#10;	&#10;	&#10;	&#10;	&#10;	&#10;	&#10;	&#10;	&#10;	&#10;	&#10;	&#10;	&#10;	&#10;	&#10;	&#10;	&#10;	&#10;	&#10;	&#10;	&#10;	&#10;	&#10;	&#10;	&#10;	&#10;	&#10;	&#10;	&#10;	&#10;	&#10;	&#10;	&#10;	&#10;	&#10;	&#10;	&#10;	&#10;	&#10;	&#10;	&#10;	&#10;	&#10;	&#10;	&#10;	&#10;	&#10;	&#10;	&#10;	&#10;	&#10;	&#10;	&#10;	&#10;	&#10;	&#10;	&#10;	&#10;	&#10;	&#10;	&#10;	&#10;	&#10;	&#10;	&#10;	&#10;	&#10;	&#10;	&#10;	&#10;	&#10;	&#10;	&#10;	&#10;	&#10;	&#10;	&#10;	&#10;	&#10;	&#10;	&#10;	&#10;	&#10;	&#10;	&#10;	&#10;	&#10;	&#10;	&#10;	&#10;	&#10;	&#10;	&#10;	&#10;	&#10;	&#10;	&#10;	&#10;	&#10;	&#10;	&#10;	&#10;	&#10;	&#10;	&#10;	&#10;	&#10;	&#10;	&#10;	&#10;	&#10;	&#10;	&#10;	&#10;	&#10;	&#10;	&#10;	&#10;	&#10;	&#10;	&#10;	&#10;	&#10;	&#10;	&#10;	&#10;	&#10;	&#10;	&#10;	&#10;	&#10;	&#10;	&#10;	&#10;	&#10;	&#10;	&#10;	&#10;	&#10;	&#10;	&#10;	&#10;	&#10;	&#10;	&#10;	&#10;	&#10;	&#10;	&#10;	&#10;	&#10;	&#10;	&#10;	&#10;	&#10;	&#10;	&#10;	&#10;	&#10;	&#10;	&#10;	&#10;	&#10;	&#10;	&#10;	&#10;	&#10;	&#10;	&#10;	&#10;	&#10;	&#10;	&#10;	&#10;	&#10;	&#10;	&#10;	&#10;	&#10;<rect
   x="412.5"
   y="1193.75"
   width="2818.75"
   height="531.25"
   id="rect2" /><rect
   x="412.5"
   y="1193.75"
   width="2818.75"
   height="531.25"
   id="rect3" /><rect
   x="412.5"
   y="1193.75"
   width="2818.75"
   height="531.25"
   id="rect4" /><rect
   x="412.5"
   y="1193.75"
   width="2818.75"
   height="531.25"
   id="rect5" /><rect
   x="412.5"
   y="1193.75"
   width="2818.75"
   height="531.25"
   id="rect6" /><rect
   x="412.5"
   y="1193.75"
   width="2818.75"
   height="531.25"
   id="rect7" /><clipPath
   clipPathUnits="userSpaceOnUse"
   id="clipPath50"><g
     id="g51"><rect
       x="10.24"
       y="5.48"
       width="123.99"
       height="123.99"
       id="rect50" /></g></clipPath><clipPath
   clipPathUnits="userSpaceOnUse"
   id="clipPath61"><g
     id="g62"><rect
       x="10.24"
       y="5.48"
       width="123.99"
       height="123.99"
       id="rect61" /></g></clipPath><clipPath
   clipPathUnits="userSpaceOnUse"
   id="clipPath60"><g
     id="g61"><rect
       x="10.24"
       y="5.48"
       width="123.99"
       height="123.99"
       id="rect60" /></g></clipPath><clipPath
   clipPathUnits="userSpaceOnUse"
   id="clipPath59"><g
     id="g60"><rect
       x="10.24"
       y="5.48"
       width="123.99"
       height="123.99"
       id="rect59" /></g></clipPath><clipPath
   clipPathUnits="userSpaceOnUse"
   id="clipPath58"><g
     id="g59"><rect
       x="10.24"
       y="5.48"
       width="123.99"
       height="123.99"
       id="rect58" /></g></clipPath><clipPath
   clipPathUnits="userSpaceOnUse"
   id="clipPath57"><g
     id="g58"><rect
       x="10.24"
       y="5.48"
       width="123.99"
       height="123.99"
       id="rect57" /></g></clipPath><clipPath
   clipPathUnits="userSpaceOnUse"
   id="clipPath56"><g
     id="g57"><rect
       x="10.24"
       y="5.48"
       width="123.99"
       height="123.99"
       id="rect56" /></g></clipPath><clipPath
   clipPathUnits="userSpaceOnUse"
   id="clipPath55"><g
     id="g56"><rect
       x="10.24"
       y="5.48"
       width="123.99"
       height="123.99"
       id="rect55" /></g></clipPath><clipPath
   clipPathUnits="userSpaceOnUse"
   id="clipPath54"><g
     id="g55"><rect
       x="10.24"
       y="5.48"
       width="123.99"
       height="123.99"
       id="rect54" /></g></clipPath><clipPath
   clipPathUnits="userSpaceOnUse"
   id="clipPath53"><g
     id="g54"><rect
       x="10.24"
       y="5.48"
       width="123.99"
       height="123.99"
       id="rect53" /></g></clipPath><clipPath
   clipPathUnits="userSpaceOnUse"
   id="clipPath52"><g
     id="g53"><rect
       x="10.24"
       y="5.48"
       width="123.99"
       height="123.99"
       id="rect52" /></g></clipPath><clipPath
   clipPathUnits="userSpaceOnUse"
   id="clipPath51"><g
     id="g52"><rect
       x="10.24"
       y="5.48"
       width="123.99"
       height="123.99"
       id="rect51" /></g></clipPath><clipPath
   clipPathUnits="userSpaceOnUse"
   id="clipPath1"><g
     id="g1"><rect
       x="10.24"
       y="5.48"
       width="123.99"
       height="123.99"
       id="rect1" /></g></clipPath><clipPath
   clipPathUnits="userSpaceOnUse"
   id="clipPath49"><g
     id="g50"><rect
       x="10.24"
       y="5.48"
       width="123.99"
       height="123.99"
       id="rect49" /></g></clipPath><clipPath
   clipPathUnits="userSpaceOnUse"
   id="clipPath48"><g
     id="g49"><rect
       x="10.24"
       y="5.48"
       width="123.99"
       height="123.99"
       id="rect48" /></g></clipPath><clipPath
   clipPathUnits="userSpaceOnUse"
   id="clipPath47"><g
     id="g48"><rect
       x="10.24"
       y="5.48"
       width="123.99"
       height="123.99"
       id="rect47" /></g></clipPath><clipPath
   clipPathUnits="userSpaceOnUse"
   id="clipPath46"><g
     id="g47"><rect
       x="10.24"
       y="5.48"
       width="123.99"
       height="123.99"
       id="rect46" /></g></clipPath><clipPath
   clipPathUnits="userSpaceOnUse"
   id="clipPath45"><g
     id="g46"><rect
       x="10.24"
       y="5.48"
       width="123.99"
       height="123.99"
       id="rect45" /></g></clipPath><clipPath
   clipPathUnits="userSpaceOnUse"
   id="clipPath44"><g
     id="g45"><rect
       x="10.24"
       y="5.48"
       width="123.99"
       height="123.99"
       id="rect44" /></g></clipPath><clipPath
   clipPathUnits="userSpaceOnUse"
   id="clipPath43"><g
     id="g44"><rect
       x="10.24"
       y="5.48"
       width="123.99"
       height="123.99"
       id="rect43" /></g></clipPath><clipPath
   clipPathUnits="userSpaceOnUse"
   id="clipPath42"><g
     id="g43"><rect
       x="10.24"
       y="5.48"
       width="123.99"
       height="123.99"
       id="rect42" /></g></clipPath><clipPath
   clipPathUnits="userSpaceOnUse"
   id="clipPath41"><g
     id="g42"><rect
       x="10.24"
       y="5.48"
       width="123.99"
       height="123.99"
       id="rect41" /></g></clipPath><clipPath
   clipPathUnits="userSpaceOnUse"
   id="clipPath40"><g
     id="g41"><rect
       x="10.24"
       y="5.48"
       width="123.99"
       height="123.99"
       id="rect40" /></g></clipPath><clipPath
   clipPathUnits="userSpaceOnUse"
   id="clipPath39"><g
     id="g40"><rect
       x="10.24"
       y="5.48"
       width="123.99"
       height="123.99"
       id="rect39" /></g></clipPath><clipPath
   clipPathUnits="userSpaceOnUse"
   id="clipPath38"><g
     id="g39"><rect
       x="10.24"
       y="5.48"
       width="123.99"
       height="123.99"
       id="rect38" /></g></clipPath><clipPath
   clipPathUnits="userSpaceOnUse"
   id="clipPath37"><g
     id="g38"><rect
       x="10.24"
       y="5.48"
       width="123.99"
       height="123.99"
       id="rect37" /></g></clipPath><clipPath
   clipPathUnits="userSpaceOnUse"
   id="clipPath36"><g
     id="g37"><rect
       x="10.24"
       y="5.48"
       width="123.99"
       height="123.99"
       id="rect36" /></g></clipPath><clipPath
   clipPathUnits="userSpaceOnUse"
   id="clipPath35"><g
     id="g36"><rect
       x="10.24"
       y="5.48"
       width="123.99"
       height="123.99"
       id="rect35" /></g></clipPath><clipPath
   clipPathUnits="userSpaceOnUse"
   id="clipPath34"><g
     id="g35"><rect
       x="10.24"
       y="5.48"
       width="123.99"
       height="123.99"
       id="rect34" /></g></clipPath><clipPath
   clipPathUnits="userSpaceOnUse"
   id="clipPath33"><g
     id="g34"><rect
       x="10.24"
       y="5.48"
       width="123.99"
       height="123.99"
       id="rect33" /></g></clipPath><rect
   x="412.5"
   y="1193.75"
   width="2818.75"
   height="531.25"
   id="rect248-7" /><rect
   x="412.5"
   y="1193.75"
   width="2818.75"
   height="531.25"
   id="rect248-4" /></defs><sodipodi:namedview
   id="namedview247"
   pagecolor="#ffffff"
   bordercolor="#000000"
   borderopacity="0.25"
   inkscape:showpageshadow="2"
   inkscape:pageopacity="0.0"
   inkscape:pagecheckerboard="0"
   inkscape:deskcolor="#d1d1d1"
   inkscape:zoom="0.45254834"
   inkscape:cx="322.61747"
   inkscape:cy="1063.9747"
   inkscape:window-width="2560"
   inkscape:window-height="1377"
   inkscape:window-x="-8"
   inkscape:window-y="-8"
   inkscape:window-maximized="1"
   inkscape:current-layer="Layer_1" />&#10;<style
   type="text/css"
   id="style1">&#10;	.st0{fill:#005590;}&#10;	.st1{fill:#004064;}&#10;	.st2{fill:#E6B35A;}&#10;	.st3{opacity:0.94;}&#10;	.st4{fill:#FFFFFF;}&#10;	.st5{fill:none;}&#10;	.st6{fill:#110B0C;}&#10;</style>&#10;<polygon
   class="st0"
   points="63.1,777.2 63.1,2159.9 1260.5,2851.3 2457.9,2159.9 2457.9,777.2 1260.5,85.8 "
   id="polygon1"
   style="fill:#b3dee5;fill-opacity:1"
   transform="translate(0,-13.05)" /><g
   id="g19"
   transform="translate(3301.6737,9.595101)"
   style="stroke:#ffffff;stroke-width:5;stroke-dasharray:none"><circle
     style="fill:#ebebeb;fill-opacity:1;stroke:#ffffff;stroke-width:5;stroke-linecap:round;stroke-linejoin:round;stroke-dasharray:none"
     id="path9"
     cx="-2044.2986"
     cy="1450.5903"
     r="792.8186" /></g><g
   id="g26"
   style="stroke:#ffffff"><circle
     style="opacity:1;fill:none;fill-opacity:1;stroke:#ffffff;stroke-width:5;stroke-linecap:round;stroke-linejoin:round;stroke-dasharray:none;stroke-opacity:1"
     id="path25"
     cx="1260.5"
     cy="1455.5"
     r="523.21722" /><circle
     style="opacity:1;fill:none;fill-opacity:1;stroke:#ffffff;stroke-width:5;stroke-linecap:round;stroke-linejoin:round;stroke-dasharray:none;stroke-opacity:1"
     id="circle25"
     cx="1260.5"
     cy="1455.5"
     r="331.06445" /><circle
     style="opacity:1;fill:none;fill-opacity:1;stroke:#ffffff;stroke-width:5;stroke-linecap:round;stroke-linejoin:round;stroke-dasharray:none;stroke-opacity:1"
     id="circle26"
     cx="1260.5"
     cy="1455.5"
     r="129.2366" /></g><path
   class="st1"
   d="M 2521,2183.6 V 727.7 L 2420.5,669.7 1467.4,119.3 1260.5,0 1053.6,119.4 100.5,669.8 0,727.7 v 1455.5 l 100.5,58 965.1,557.2 195.2,112.5 195.2,-112.5 965.1,-557.2 z M 100.5,2129 V 789.2 l 1160,-669.8 v 0 l 1160,669.8 V 2129 l -1160,669.8 z"
   id="path1"
   style="fill:#31525b;fill-opacity:1" />&#10;<circle
   style="fill:none;stroke:none;stroke-width:1.33333;stroke-linecap:round;stroke-linejoin:round"
   id="path2"
   cx="1882.5497"
   cy="-501.14053"
   r="1037.4581"
   transform="rotate(66.192461)" /><g
   inkscape:label="Clip"
   id="g27"><text
     xml:space="preserve"
     id="text248"
     style="font-style:normal;font-variant:normal;font-weight:normal;font-stretch:normal;font-size:266.667px;font-family:'Clear Sans';-inkscape-font-specification:'Clear Sans, Normal';font-variant-ligatures:normal;font-variant-caps:normal;font-variant-numeric:normal;font-variant-east-asian:normal;text-align:center;white-space:pre;display:inline;fill:#000000;fill-opacity:1;stroke:none;stroke-width:1.75748;stroke-linejoin:round"
     transform="translate(-3603.125,-253.125)"><textPath
       xlink:href="#path2"
       startOffset="50%"
       id="textPath2"><tspan
         id="tspan2-7">ggradar</tspan></textPath></text></g><path
   d="m 913.2651,619.46827 q 12.7242,27.41209 5.29444,47.1253 -7.23953,19.78282 -38.679,34.37644 -30.0104,13.93028 -55.40749,10.24423 l -0.0677,-21.91768 q 23.20715,4.07096 46.8517,-6.90441 19.09753,-8.86473 23.80315,-20.83924 4.89585,-11.90491 -3.60705,-30.22294 l -7.41742,-15.97957 q -4.22766,10.96312 -12.52883,20.97475 -8.30118,10.01164 -20.77304,15.80085 -25.07362,11.63872 -46.45673,-0.0689 -21.44342,-11.83756 -37.12252,-45.6155 -15.43788,-33.25828 -9.44128,-58.78044 5.9966,-25.52217 31.45997,-37.3418 20.65651,-9.58837 44.93052,-2.53868 l -5.18617,-11.1727 22.47532,-10.43263 z m -70.11567,-92.20034 q -24.61275,-6.41873 -41.89147,1.60173 -17.01888,7.89985 -19.70208,25.25189 -2.55328,17.29173 8.48239,41.0662 12.18146,26.24286 25.9141,34.39589 13.67234,8.02311 29.78182,0.54539 18.70778,-8.68381 29.01466,-34.78556 z m 232.26537,45.10918 q 7.6688,29.23213 -3.1344,47.31808 -10.6283,18.18816 -44.1552,26.9837 -32.00298,8.39574 -56.34594,0.27051 l 3.81463,-21.58327 q 22.11947,8.11624 47.33391,1.50141 20.3655,-5.34274 27.1173,-16.29472 6.9266,-10.84977 1.8019,-30.38404 l -4.4704,-17.04053 q -6.1023,10.0412 -16.0452,18.4246 -9.9428,8.3834 -23.2428,11.87254 -26.73836,7.01463 -45.71028,-8.29461 -19.00827,-15.44777 -28.45802,-51.4684 -9.30437,-35.46646 1.11704,-59.52336 10.42141,-24.05689 37.57542,-31.18055 22.028,-5.77889 44.66994,5.45794 l -3.1256,-11.91452 23.9675,-6.28772 z m -52.6803,-103.15957 q -23.08709,-10.67583 -41.51303,-5.84191 -18.14885,4.76122 -23.86242,21.36386 -5.57503,16.5663 1.07614,41.91928 7.34174,27.98526 19.41357,38.44127 12.03549,10.31747 29.21454,5.81067 19.9499,-5.23371 34.7161,-29.09775 z m 169.1262,-34.37671 q -4.1718,-1.27821 -11.5767,-0.47854 -10.9648,1.18414 -20.6641,7.41782 -9.5722,6.0759 -21.6394,21.06495 l 11.1494,103.24074 -24.493,2.64509 -16.1319,-149.37868 24.4929,-2.64509 2.6144,24.20818 q 9.1302,-11.50252 19.5187,-20.69187 10.5155,-9.34713 24.3284,-10.83884 9.2561,-0.99959 15.1327,1.39107 z m 131.0256,126.67441 0.6715,-18.75098 q -11.8098,9.60951 -23.6397,15.77861 -11.8299,6.1691 -26.4299,5.64623 -21.4706,-0.76892 -32.7414,-14.21475 -11.1225,-13.58384 -10.3895,-34.05247 0.5537,-15.45882 6.9294,-25.40627 6.524,-10.08546 18.1851,-15.54399 11.8094,-5.59655 33.8017,-7.38872 l 37.0473,-1.96962 0.2614,-7.3 q 0.6203,-17.31961 -8.8875,-23.96622 -9.3646,-6.64149 -26.398,-7.2515 -15.1725,-0.54337 -23.6641,4.45539 -8.3485,5.00389 -12.1474,11.03064 L 1235.7437,429.549 q 7.3166,-12.20688 21.5798,-18.28884 14.4115,-6.21996 35.3096,-5.47154 32.349,1.1585 45.9561,13.39812 13.6071,12.23961 12.5716,41.15333 l -3.6549,102.05686 z m 2.7271,-76.14902 -24.1291,1.42901 q -24.5533,1.27049 -34.8395,8.3548 -10.281,6.94117 -10.7885,21.11175 -0.4819,13.45491 6.0354,19.56446 6.5173,6.10956 19.9722,6.59141 5.5823,0.19992 11.0933,-1.60921 5.5161,-1.95226 10.9198,-4.76848 5.4089,-2.95935 10.414,-6.64977 5.1533,-3.82843 10.0101,-7.38083 z m 161.9897,102.06058 3.0791,-14.5741 q -9.9556,6.24093 -22.7415,9.24886 -12.7859,3.00793 -25.9587,0.2249 -26.4856,-5.59567 -36.7154,-28.54442 -10.2002,-23.08889 -2.4433,-59.80442 7.609,-36.01485 27.834,-54.13965 20.225,-18.12479 47.9719,-12.26266 22.2815,4.70747 37.4852,24.9009 l 15.5731,-73.71133 24.2435,5.12196 -44.0845,208.66193 z m 24.0703,-113.93025 q -15.8531,-19.89145 -34.4911,-23.82914 -16.3959,-3.46399 -29.8371,8.18893 -13.2715,11.54239 -19.4593,40.83074 -11.7539,55.63383 23.28,63.03552 11.4911,2.42775 23.0751,-1.12691 11.724,-3.52506 21.0006,-9.32387 z m 126.1117,165.39754 6.9704,-17.42019 q -14.3629,5.05174 -27.5818,6.8588 -13.2189,1.80705 -26.7828,-3.62031 -19.9468,-7.98141 -26.0089,-24.44564 -5.876,-16.54399 1.7329,-35.55993 5.7466,-14.36169 15.1096,-21.56837 9.5491,-7.28646 22.369,-8.48183 13.0061,-1.27513 34.3096,4.47229 l 35.5323,10.66952 2.7137,-6.78191 q 6.4383,-16.09041 -0.263,-25.55971 -6.5684,-9.41608 -22.3928,-15.748 -14.0958,-5.6402 -23.7773,-3.80614 -9.5485,1.88727 -15.161,6.27512 l -14.174,-18.93869 q 11.0122,-9.01509 26.4918,-9.91758 15.6657,-0.98226 35.0806,6.78631 30.0531,12.02533 38.7219,28.1441 8.6687,16.11876 -2.0796,42.98044 l -37.9383,94.81374 z m 28.3074,-70.74461 -23.1918,-6.81153 q -23.5375,-7.10413 -35.6129,-3.9139 -12.0221,3.05725 -17.2899,16.22213 -5.0017,12.49999 -0.9332,20.45296 4.0684,7.95296 16.5684,12.95464 5.1861,2.07517 10.9842,2.23543 5.8514,0.0273 11.889,-0.79652 6.0908,-0.95679 12.0487,-2.73809 6.1441,-1.86107 11.9159,-3.5626 z m 170.1413,34.01285 q -2.6071,-3.49868 -9.05,-7.23498 -9.5405,-5.53259 -21.0482,-6.24543 -11.3119,-0.76489 -29.9085,4.17993 l -52.0926,89.8294 -21.3113,-12.35851 75.3726,-129.97385 21.3113,12.35852 -12.2149,21.06344 q 14.1662,-3.87156 27.9782,-5.13381 14.0078,-1.3143 26.0263,5.65533 8.0537,4.67037 11.377,10.07455 z"
   id="text248-0"
   style="font-size:293.333px;font-family:'Clear Sans';-inkscape-font-specification:'Clear Sans, Normal';text-align:center;white-space:pre;stroke-width:1.75748;stroke-linejoin:round"
   aria-label="ggradar" /><path
   style="opacity:0.75;fill:#fae6b1;fill-opacity:1;stroke:#ffffff;stroke-width:10;stroke-linecap:round;stroke-linejoin:round;stroke-dasharray:none;stroke-opacity:1"
   d="m 527.8035,1152.186 1465.2509,607.0507"
   id="path24" /><path
   style="opacity:0.75;fill:#fae6b1;fill-opacity:1;stroke:#ffffff;stroke-width:5;stroke-linecap:round;stroke-linejoin:round;stroke-dasharray:none;stroke-opacity:1"
   d="M 1563.9543,2188.3368 956.9036,723.08594"
   id="path23" /><path
   style="opacity:0.75;fill:#fae6b1;fill-opacity:1;stroke:#ffffff;stroke-width:5;stroke-linecap:round;stroke-linejoin:round;stroke-dasharray:none;stroke-opacity:1"
   d="M 956.9036,2188.3368 1563.9543,723.08594"
   id="path22" /><path
   style="opacity:0.75;fill:#fae6b1;fill-opacity:1;stroke:#ffffff;stroke-width:5;stroke-linecap:round;stroke-linejoin:round;stroke-dasharray:none;stroke-opacity:1"
   d="M 527.8035,1759.2367 1993.0544,1152.186"
   id="path21" /><path
   id="path20"
   style="opacity:0.75;fill:#fae6b1;fill-opacity:1;stroke:none;stroke-width:10;stroke-linecap:round;stroke-linejoin:round;stroke-dasharray:none;stroke-opacity:1"
   d="m 1484.7303,903.3451 -310.4926,344.2527 -557.4195,-58.5281 467.7207,339.4844 61.9297,202.3769 284.461,136.2754 480.8242,-141.7968 -374.0938,-384.4708 z m -91.7617,232.2109 -37.3594,280.8106 336.1016,224.6719 -346.6406,19.1308 -122.0938,-113.8476 v -75.2715 L 949.0546,1331.1517 m 0,0 311.4454,124.6307 132.4686,-320.2264"
   sodipodi:nodetypes="ccccccccccccccccccc" /><path
   style="fill:none;fill-opacity:1;stroke:#faac22;stroke-width:10;stroke-linecap:round;stroke-linejoin:round;stroke-dasharray:none;stroke-opacity:1"
   d="m 1438.735,1025.2611 0.9949,356.1857 376.7951,304.5914 -429.8107,74.6199 -200.5499,-125.6457 -42.0714,-130.6204 -376.9372,-252.9971 471.0293,150.6612 z"
   id="path18" /><g
   id="g24"
   transform="translate(3304.7987,4.907601)"><circle
     style="fill:#ffffff;fill-opacity:1;stroke:#faac22;stroke-width:8;stroke-linecap:round;stroke-linejoin:round;stroke-dasharray:none;stroke-opacity:1"
     id="path3"
     cx="-1865.0687"
     cy="1374.2755"
     r="32" /><circle
     style="fill:#ffffff;fill-opacity:1;stroke:#faac22;stroke-width:8;stroke-linecap:round;stroke-linejoin:round;stroke-dasharray:none;stroke-opacity:1"
     id="circle3"
     cx="-1868.3274"
     cy="1020.3535"
     r="32" /><circle
     style="fill:#ffffff;fill-opacity:1;stroke:#faac22;stroke-width:8;stroke-linecap:round;stroke-linejoin:round;stroke-dasharray:none;stroke-opacity:1"
     id="circle4"
     cx="-1490.5374"
     cy="1681.1306"
     r="32" /><circle
     style="fill:#ffffff;fill-opacity:1;stroke:#faac22;stroke-width:8;stroke-linecap:round;stroke-linejoin:round;stroke-dasharray:none;stroke-opacity:1"
     id="circle5"
     cx="-1918.0844"
     cy="1755.7505"
     r="32" /><circle
     style="fill:#ffffff;fill-opacity:1;stroke:#faac22;stroke-width:8;stroke-linecap:round;stroke-linejoin:round;stroke-dasharray:none;stroke-opacity:1"
     id="circle6"
     cx="-2118.6343"
     cy="1627.8411"
     r="32" /><circle
     style="fill:#ffffff;fill-opacity:1;stroke:#faac22;stroke-width:8;stroke-linecap:round;stroke-linejoin:round;stroke-dasharray:none;stroke-opacity:1"
     id="circle7"
     cx="-2160.8479"
     cy="1499.058"
     r="32" /><circle
     style="fill:#ffffff;fill-opacity:1;stroke:#faac22;stroke-width:8;stroke-linecap:round;stroke-linejoin:round;stroke-dasharray:none;stroke-opacity:1"
     id="circle8"
     cx="-2537.6428"
     cy="1246.4873"
     r="32" /><circle
     style="fill:#ffffff;fill-opacity:1;stroke:#faac22;stroke-width:8;stroke-linecap:round;stroke-linejoin:round;stroke-dasharray:none;stroke-opacity:1"
     id="circle9"
     cx="-2066.2122"
     cy="1397.5498"
     r="32" /></g></svg>
