<?xml version="1.0" encoding="UTF-8" standalone="no"?>
<!-- Generator: Adobe Illustrator 26.5.0, SVG Export Plug-In . SVG Version: 6.00 Build 0)  -->

<svg
   version="1.1"
   id="Layer_1"
   x="0px"
   y="0px"
   viewBox="0 0 2521 2911"
   style="enable-background:new 0 0 2521 2911;"
   xml:space="preserve"
   sodipodi:docname="ggradar.svg"
   inkscape:version="1.3 (0e150ed6c4, 2023-07-21)"
   inkscape:export-filename="eyelinkReader.png"
   inkscape:export-xdpi="96"
   inkscape:export-ydpi="96"
   xmlns:inkscape="http://www.inkscape.org/namespaces/inkscape"
   xmlns:sodipodi="http://sodipodi.sourceforge.net/DTD/sodipodi-0.dtd"
   xmlns:xlink="http://www.w3.org/1999/xlink"
   xmlns="http://www.w3.org/2000/svg"
   xmlns:svg="http://www.w3.org/2000/svg"><defs
   id="defs247"><rect
   x="412.5"
   y="1193.75"
   width="2818.75"
   height="531.25"
   id="rect248" />&#10;	&#10;	&#10;	&#10;	&#10;	&#10;	&#10;	&#10;	&#10;	&#10;	&#10;	&#10;	&#10;	&#10;	&#10;	&#10;	&#10;	&#10;	&#10;	&#10;	&#10;	&#10;	&#10;	&#10;	&#10;	&#10;	&#10;	&#10;	&#10;	&#10;	&#10;	&#10;	&#10;	&#10;	&#10;	&#10;	&#10;	&#10;	&#10;	&#10;	&#10;	&#10;	&#10;	&#10;	&#10;	&#10;	&#10;	&#10;	&#10;	&#10;	&#10;	&#10;	&#10;	&#10;	&#10;	&#10;	&#10;	&#10;	&#10;	&#10;	&#10;	&#10;	&#10;	&#10;	&#10;	&#10;	&#10;	&#10;	&#10;	&#10;	&#10;	&#10;	&#10;	&#10;	&#10;	&#10;	&#10;	&#10;	&#10;	&#10;	&#10;	&#10;	&#10;	&#10;	&#10;	&#10;	&#10;	&#10;	&#10;	&#10;	&#10;	&#10;	&#10;	&#10;	&#10;	&#10;	&#10;	&#10;	&#10;	&#10;	&#10;	&#10;	&#10;	&#10;	&#10;	&#10;	&#10;	&#10;	&#10;	&#10;	&#10;	&#10;	&#10;	&#10;	&#10;	&#10;	&#10;	&#10;	&#10;	&#10;	&#10;	&#10;	&#10;	&#10;	&#10;	&#10;	&#10;	&#10;	&#10;	&#10;	&#10;	&#10;	&#10;	&#10;	&#10;	&#10;	&#10;	&#10;	&#10;	&#10;	&#10;	&#10;	&#10;	&#10;	&#10;	&#10;	&#10;	&#10;	&#10;	&#10;	&#10;	&#10;	&#10;	&#10;	&#10;	&#10;	&#10;	&#10;	&#10;	&#10;	&#10;	&#10;	&#10;	&#10;	&#10;	&#10;	&#10;	&#10;	&#10;	&#10;	&#10;	&#10;	&#10;	&#10;	&#10;	&#10;	&#10;	&#10;	&#10;	&#10;	&#10;	&#10;	&#10;	&#10;	&#10;	&#10;	&#10;	&#10;	&#10;	&#10;	&#10;	&#10;	&#10;	&#10;	&#10;	&#10;	&#10;	&#10;	&#10;	&#10;	&#10;	&#10;	&#10;	&#10;	&#10;	&#10;	&#10;	&#10;	&#10;	&#10;	&#10;	&#10;	&#10;	&#10;	&#10;	&#10;	&#10;	&#10;	&#10;	&#10;	&#10;	&#10;	&#10;	&#10;	&#10;	&#10;	&#10;	&#10;	&#10;	&#10;	&#10;	&#10;	&#10;	&#10;	&#10;	&#10;	&#10;	&#10;	&#10;	&#10;	&#10;	&#10;	&#10;	&#10;	&#10;	&#10;	&#10;	&#10;	&#10;	&#10;	&#10;	&#10;	&#10;	&#10;	&#10;	&#10;	&#10;	&#10;	&#10;<rect
   x="412.5"
   y="1193.75"
   width="2818.75"
   height="531.25"
   id="rect2" /><rect
   x="412.5"
   y="1193.75"
   width="2818.75"
   height="531.25"
   id="rect3" /><rect
   x="412.5"
   y="1193.75"
   width="2818.75"
   height="531.25"
   id="rect4" /><rect
   x="412.5"
   y="1193.75"
   width="2818.75"
   height="531.25"
   id="rect5" /><rect
   x="412.5"
   y="1193.75"
   width="2818.75"
   height="531.25"
   id="rect6" /><rect
   x="412.5"
   y="1193.75"
   width="2818.75"
   height="531.25"
   id="rect7" /><clipPath
   clipPathUnits="userSpaceOnUse"
   id="clipPath50"><g
     id="g51"><rect
       x="10.24"
       y="5.48"
       width="123.99"
       height="123.99"
       id="rect50" /></g></clipPath><clipPath
   clipPathUnits="userSpaceOnUse"
   id="clipPath61"><g
     id="g62"><rect
       x="10.24"
       y="5.48"
       width="123.99"
       height="123.99"
       id="rect61" /></g></clipPath><clipPath
   clipPathUnits="userSpaceOnUse"
   id="clipPath60"><g
     id="g61"><rect
       x="10.24"
       y="5.48"
       width="123.99"
       height="123.99"
       id="rect60" /></g></clipPath><clipPath
   clipPathUnits="userSpaceOnUse"
   id="clipPath59"><g
     id="g60"><rect
       x="10.24"
       y="5.48"
       width="123.99"
       height="123.99"
       id="rect59" /></g></clipPath><clipPath
   clipPathUnits="userSpaceOnUse"
   id="clipPath58"><g
     id="g59"><rect
       x="10.24"
       y="5.48"
       width="123.99"
       height="123.99"
       id="rect58" /></g></clipPath><clipPath
   clipPathUnits="userSpaceOnUse"
   id="clipPath57"><g
     id="g58"><rect
       x="10.24"
       y="5.48"
       width="123.99"
       height="123.99"
       id="rect57" /></g></clipPath><clipPath
   clipPathUnits="userSpaceOnUse"
   id="clipPath56"><g
     id="g57"><rect
       x="10.24"
       y="5.48"
       width="123.99"
       height="123.99"
       id="rect56" /></g></clipPath><clipPath
   clipPathUnits="userSpaceOnUse"
   id="clipPath55"><g
     id="g56"><rect
       x="10.24"
       y="5.48"
       width="123.99"
       height="123.99"
       id="rect55" /></g></clipPath><clipPath
   clipPathUnits="userSpaceOnUse"
   id="clipPath54"><g
     id="g55"><rect
       x="10.24"
       y="5.48"
       width="123.99"
       height="123.99"
       id="rect54" /></g></clipPath><clipPath
   clipPathUnits="userSpaceOnUse"
   id="clipPath53"><g
     id="g54"><rect
       x="10.24"
       y="5.48"
       width="123.99"
       height="123.99"
       id="rect53" /></g></clipPath><clipPath
   clipPathUnits="userSpaceOnUse"
   id="clipPath52"><g
     id="g53"><rect
       x="10.24"
       y="5.48"
       width="123.99"
       height="123.99"
       id="rect52" /></g></clipPath><clipPath
   clipPathUnits="userSpaceOnUse"
   id="clipPath51"><g
     id="g52"><rect
       x="10.24"
       y="5.48"
       width="123.99"
       height="123.99"
       id="rect51" /></g></clipPath><clipPath
   clipPathUnits="userSpaceOnUse"
   id="clipPath1"><g
     id="g1"><rect
       x="10.24"
       y="5.48"
       width="123.99"
       height="123.99"
       id="rect1" /></g></clipPath><clipPath
   clipPathUnits="userSpaceOnUse"
   id="clipPath49"><g
     id="g50"><rect
       x="10.24"
       y="5.48"
       width="123.99"
       height="123.99"
       id="rect49" /></g></clipPath><clipPath
   clipPathUnits="userSpaceOnUse"
   id="clipPath48"><g
     id="g49"><rect
       x="10.24"
       y="5.48"
       width="123.99"
       height="123.99"
       id="rect48" /></g></clipPath><clipPath
   clipPathUnits="userSpaceOnUse"
   id="clipPath47"><g
     id="g48"><rect
       x="10.24"
       y="5.48"
       width="123.99"
       height="123.99"
       id="rect47" /></g></clipPath><clipPath
   clipPathUnits="userSpaceOnUse"
   id="clipPath46"><g
     id="g47"><rect
       x="10.24"
       y="5.48"
       width="123.99"
       height="123.99"
       id="rect46" /></g></clipPath><clipPath
   clipPathUnits="userSpaceOnUse"
   id="clipPath45"><g
     id="g46"><rect
       x="10.24"
       y="5.48"
       width="123.99"
       height="123.99"
       id="rect45" /></g></clipPath><clipPath
   clipPathUnits="userSpaceOnUse"
   id="clipPath44"><g
     id="g45"><rect
       x="10.24"
       y="5.48"
       width="123.99"
       height="123.99"
       id="rect44" /></g></clipPath><clipPath
   clipPathUnits="userSpaceOnUse"
   id="clipPath43"><g
     id="g44"><rect
       x="10.24"
       y="5.48"
       width="123.99"
       height="123.99"
       id="rect43" /></g></clipPath><clipPath
   clipPathUnits="userSpaceOnUse"
   id="clipPath42"><g
     id="g43"><rect
       x="10.24"
       y="5.48"
       width="123.99"
       height="123.99"
       id="rect42" /></g></clipPath><clipPath
   clipPathUnits="userSpaceOnUse"
   id="clipPath41"><g
     id="g42"><rect
       x="10.24"
       y="5.48"
       width="123.99"
       height="123.99"
       id="rect41" /></g></clipPath><clipPath
   clipPathUnits="userSpaceOnUse"
   id="clipPath40"><g
     id="g41"><rect
       x="10.24"
       y="5.48"
       width="123.99"
       height="123.99"
       id="rect40" /></g></clipPath><clipPath
   clipPathUnits="userSpaceOnUse"
   id="clipPath39"><g
     id="g40"><rect
       x="10.24"
       y="5.48"
       width="123.99"
       height="123.99"
       id="rect39" /></g></clipPath><clipPath
   clipPathUnits="userSpaceOnUse"
   id="clipPath38"><g
     id="g39"><rect
       x="10.24"
       y="5.48"
       width="123.99"
       height="123.99"
       id="rect38" /></g></clipPath><clipPath
   clipPathUnits="userSpaceOnUse"
   id="clipPath37"><g
     id="g38"><rect
       x="10.24"
       y="5.48"
       width="123.99"
       height="123.99"
       id="rect37" /></g></clipPath><clipPath
   clipPathUnits="userSpaceOnUse"
   id="clipPath36"><g
     id="g37"><rect
       x="10.24"
       y="5.48"
       width="123.99"
       height="123.99"
       id="rect36" /></g></clipPath><clipPath
   clipPathUnits="userSpaceOnUse"
   id="clipPath35"><g
     id="g36"><rect
       x="10.24"
       y="5.48"
       width="123.99"
       height="123.99"
       id="rect35" /></g></clipPath><clipPath
   clipPathUnits="userSpaceOnUse"
   id="clipPath34"><g
     id="g35"><rect
       x="10.24"
       y="5.48"
       width="123.99"
       height="123.99"
       id="rect34" /></g></clipPath><clipPath
   clipPathUnits="userSpaceOnUse"
   id="clipPath33"><g
     id="g34"><rect
       x="10.24"
       y="5.48"
       width="123.99"
       height="123.99"
       id="rect33" /></g></clipPath><rect
   x="412.5"
   y="1193.75"
   width="2818.75"
   height="531.25"
   id="rect248-7" /></defs><sodipodi:namedview
   id="namedview247"
   pagecolor="#ffffff"
   bordercolor="#000000"
   borderopacity="0.25"
   inkscape:showpageshadow="2"
   inkscape:pageopacity="0.0"
   inkscape:pagecheckerboard="0"
   inkscape:deskcolor="#d1d1d1"
   inkscape:zoom="0.22627417"
   inkscape:cx="-541.37863"
   inkscape:cy="1579.9417"
   inkscape:window-width="3200"
   inkscape:window-height="1771"
   inkscape:window-x="-9"
   inkscape:window-y="-9"
   inkscape:window-maximized="1"
   inkscape:current-layer="Layer_1" />&#10;<style
   type="text/css"
   id="style1">&#10;	.st0{fill:#005590;}&#10;	.st1{fill:#004064;}&#10;	.st2{fill:#E6B35A;}&#10;	.st3{opacity:0.94;}&#10;	.st4{fill:#FFFFFF;}&#10;	.st5{fill:none;}&#10;	.st6{fill:#110B0C;}&#10;</style>&#10;<polygon
   class="st0"
   points="63.1,777.2 63.1,2159.9 1260.5,2851.3 2457.9,2159.9 2457.9,777.2 1260.5,85.8 "
   id="polygon1"
   style="fill:#b3dee5;fill-opacity:1"
   transform="translate(0,-13.05)" /><path
   class="st1"
   d="M 2521,2183.6 V 727.7 L 2420.5,669.7 1467.4,119.3 1260.5,0 1053.6,119.4 100.5,669.8 0,727.7 v 1455.5 l 100.5,58 965.1,557.2 195.2,112.5 195.2,-112.5 965.1,-557.2 z M 100.5,2129 V 789.2 l 1160,-669.8 v 0 l 1160,669.8 V 2129 l -1160,669.8 z"
   id="path1"
   style="fill:#31525b;fill-opacity:1" />&#10;<g
   id="g2"><polyline
     points="72.24,11.68 75.77,11.79 79.30,12.13 82.80,12.69 86.25,13.47 89.65,14.46 92.97,15.68 96.22,17.10 99.36,18.72 102.40,20.54 105.32,22.54 108.10,24.73 110.74,27.09 113.22,29.62 115.54,32.29 117.69,35.11 119.65,38.06 121.42,41.12 122.99,44.30 124.36,47.56 125.52,50.91 126.46,54.32 127.18,57.79 127.69,61.29 127.97,64.82 128.03,68.36 127.86,71.90 127.46,75.42 126.85,78.90 126.01,82.34 124.96,85.72 123.70,89.03 122.23,92.25 120.56,95.37 118.69,98.38 116.64,101.27 114.40,104.01 112.00,106.61 109.44,109.06 106.73,111.33 103.88,113.43 100.90,115.35 97.80,117.07 94.61,118.59 91.32,119.91 87.96,121.01 84.53,121.90 81.05,122.57 77.54,123.02 74.01,123.24 70.47,123.24 66.93,123.02 63.42,122.57 59.94,121.90 56.52,121.01 53.15,119.91 49.87,118.59 46.67,117.07 43.57,115.35 40.60,113.43 37.75,111.33 35.03,109.06 32.47,106.61 30.07,104.01 27.84,101.27 25.78,98.38 23.92,95.37 22.24,92.25 20.77,89.03 19.51,85.72 18.46,82.34 17.62,78.90 17.01,75.42 16.62,71.90 16.45,68.36 16.50,64.82 16.78,61.29 17.29,57.79 18.01,54.32 18.96,50.91 20.11,47.56 21.48,44.30 23.05,41.12 24.82,38.06 26.79,35.11 28.93,32.29 31.25,29.62 33.73,27.09 36.37,24.73 39.15,22.54 42.07,20.54 45.11,18.72 48.26,17.10 51.50,15.68 54.83,14.46 58.22,13.47 61.68,12.69 65.17,12.13 68.70,11.79 72.24,11.68 "
     style="fill:#ebebeb;fill-opacity:1;stroke:none;stroke-width:1.07;stroke-linecap:butt;stroke-linejoin:round;stroke-miterlimit:10"
     id="polyline63"
     clip-path="url(#clipPath50)"
     transform="matrix(15.809859,0,0,15.809859,107.34724,384.05729)" /><polyline
     points="72.24,67.48 93.59,15.93 "
     style="fill:none;stroke:#ffffff;stroke-width:1.07;stroke-linecap:butt;stroke-linejoin:round;stroke-miterlimit:10"
     id="polyline6"
     clip-path="url(#clipPath61)"
     transform="matrix(14.213317,0,0,14.213317,222.68135,491.7602)" /><polyline
     points="72.24,67.48 123.78,46.12 "
     style="fill:none;stroke:#ffffff;stroke-width:1.07;stroke-linecap:butt;stroke-linejoin:round;stroke-miterlimit:10"
     id="polyline7"
     clip-path="url(#clipPath60)"
     transform="matrix(14.213317,0,0,14.213317,222.68135,491.7602)" /><polyline
     points="72.24,67.48 123.78,88.83 "
     style="fill:none;stroke:#ffffff;stroke-width:1.07;stroke-linecap:butt;stroke-linejoin:round;stroke-miterlimit:10"
     id="polyline8"
     clip-path="url(#clipPath59)"
     transform="matrix(14.213317,0,0,14.213317,222.68135,491.7602)" /><polyline
     points="72.24,67.48 93.59,119.02 "
     style="fill:none;stroke:#ffffff;stroke-width:1.07;stroke-linecap:butt;stroke-linejoin:round;stroke-miterlimit:10"
     id="polyline9"
     clip-path="url(#clipPath58)"
     transform="matrix(14.213317,0,0,14.213317,222.68135,491.7602)" /><polyline
     points="72.24,67.48 50.88,119.02 "
     style="fill:none;stroke:#ffffff;stroke-width:1.07;stroke-linecap:butt;stroke-linejoin:round;stroke-miterlimit:10"
     id="polyline10"
     clip-path="url(#clipPath57)"
     transform="matrix(14.213317,0,0,14.213317,222.68135,491.7602)" /><polyline
     points="72.24,67.48 20.69,88.83 "
     style="fill:none;stroke:#ffffff;stroke-width:1.07;stroke-linecap:butt;stroke-linejoin:round;stroke-miterlimit:10"
     id="polyline11"
     clip-path="url(#clipPath56)"
     transform="matrix(14.213317,0,0,14.213317,222.68135,491.7602)" /><polyline
     points="72.24,67.48 20.69,46.12 "
     style="fill:none;stroke:#ffffff;stroke-width:1.07;stroke-linecap:butt;stroke-linejoin:round;stroke-miterlimit:10"
     id="polyline12"
     clip-path="url(#clipPath55)"
     transform="matrix(14.213317,0,0,14.213317,222.68135,491.7602)" /><polyline
     points="72.24,67.48 50.88,15.93 "
     style="fill:none;stroke:#ffffff;stroke-width:1.07;stroke-linecap:butt;stroke-linejoin:round;stroke-miterlimit:10"
     id="polyline13"
     clip-path="url(#clipPath54)"
     transform="matrix(14.213317,0,0,14.213317,222.68135,491.7602)" /><polyline
     points="72.24,58.60 72.80,58.62 73.36,58.67 73.92,58.76 74.46,58.89 75.00,59.04 75.53,59.24 76.05,59.46 76.55,59.72 77.03,60.01 77.50,60.33 77.94,60.68 78.36,61.05 78.75,61.45 79.12,61.88 79.46,62.33 79.78,62.80 80.06,63.28 80.31,63.79 80.53,64.31 80.71,64.84 80.86,65.38 80.97,65.93 81.05,66.49 81.10,67.05 81.11,67.62 81.08,68.18 81.02,68.74 80.92,69.29 80.79,69.84 80.62,70.38 80.42,70.90 80.19,71.42 79.92,71.91 79.62,72.39 79.30,72.85 78.94,73.29 78.56,73.70 78.15,74.09 77.72,74.45 77.27,74.78 76.79,75.09 76.30,75.36 75.79,75.60 75.27,75.81 74.74,75.99 74.19,76.13 73.64,76.24 73.08,76.31 72.52,76.34 71.95,76.34 71.39,76.31 70.83,76.24 70.28,76.13 69.74,75.99 69.20,75.81 68.68,75.60 68.17,75.36 67.68,75.09 67.20,74.78 66.75,74.45 66.32,74.09 65.91,73.70 65.53,73.29 65.17,72.85 64.85,72.39 64.55,71.91 64.29,71.42 64.05,70.90 63.85,70.38 63.68,69.84 63.55,69.29 63.45,68.74 63.39,68.18 63.36,67.62 63.37,67.05 63.42,66.49 63.50,65.93 63.61,65.38 63.76,64.84 63.95,64.31 64.16,63.79 64.41,63.28 64.70,62.80 65.01,62.33 65.35,61.88 65.72,61.45 66.11,61.05 66.53,60.68 66.97,60.33 67.44,60.01 67.92,59.72 68.42,59.46 68.94,59.24 69.47,59.04 70.01,58.89 70.56,58.76 71.11,58.67 71.67,58.62 72.24,58.60 "
     style="fill:none;stroke:#ffffff;stroke-width:1.07;stroke-linecap:butt;stroke-linejoin:round;stroke-miterlimit:10"
     id="polyline14"
     clip-path="url(#clipPath53)"
     transform="matrix(14.213317,0,0,14.213317,222.68135,491.7602)" /><polyline
     points="72.24,44.26 73.71,44.30 75.18,44.44 76.63,44.67 78.07,45.00 79.48,45.41 80.87,45.92 82.22,46.51 83.53,47.18 84.79,47.94 86.00,48.78 87.16,49.69 88.26,50.67 89.29,51.72 90.26,52.83 91.15,54.01 91.97,55.23 92.70,56.51 93.36,57.83 93.93,59.19 94.41,60.58 94.80,62.00 95.10,63.44 95.31,64.90 95.43,66.37 95.45,67.84 95.38,69.32 95.22,70.78 94.96,72.23 94.62,73.66 94.18,75.07 93.65,76.45 93.04,77.79 92.35,79.09 91.57,80.34 90.71,81.54 89.78,82.68 88.78,83.76 87.72,84.78 86.59,85.73 85.40,86.60 84.16,87.40 82.88,88.11 81.55,88.75 80.18,89.29 78.78,89.75 77.35,90.12 75.90,90.40 74.44,90.59 72.97,90.68 71.50,90.68 70.03,90.59 68.57,90.40 67.12,90.12 65.69,89.75 64.29,89.29 62.93,88.75 61.60,88.11 60.31,87.40 59.07,86.60 57.88,85.73 56.75,84.78 55.69,83.76 54.69,82.68 53.76,81.54 52.90,80.34 52.13,79.09 51.43,77.79 50.82,76.45 50.29,75.07 49.86,73.66 49.51,72.23 49.25,70.78 49.09,69.32 49.02,67.84 49.04,66.37 49.16,64.90 49.37,63.44 49.67,62.00 50.06,60.58 50.55,59.19 51.11,57.83 51.77,56.51 52.51,55.23 53.32,54.01 54.21,52.83 55.18,51.72 56.21,50.67 57.31,49.69 58.47,48.78 59.68,47.94 60.95,47.18 62.26,46.51 63.61,45.92 64.99,45.41 66.40,45.00 67.84,44.67 69.30,44.44 70.76,44.30 72.24,44.26 "
     style="fill:none;stroke:#ffffff;stroke-width:1.07;stroke-linecap:butt;stroke-linejoin:round;stroke-miterlimit:10"
     id="polyline15"
     clip-path="url(#clipPath52)"
     transform="matrix(14.213317,0,0,14.213317,222.68135,491.7602)" /><polyline
     points="72.24,29.91 74.62,29.98 76.99,30.21 79.35,30.59 81.67,31.11 83.96,31.78 86.20,32.60 88.38,33.56 90.50,34.65 92.55,35.87 94.51,37.22 96.38,38.70 98.16,40.29 99.83,41.99 101.39,43.79 102.84,45.68 104.16,47.67 105.35,49.73 106.41,51.87 107.33,54.07 108.11,56.32 108.74,58.62 109.23,60.95 109.57,63.31 109.76,65.69 109.80,68.07 109.68,70.45 109.42,72.82 109.01,75.17 108.44,77.49 107.74,79.76 106.89,81.99 105.90,84.16 104.77,86.26 103.51,88.28 102.13,90.23 100.63,92.08 99.01,93.83 97.28,95.47 95.46,97.00 93.54,98.42 91.53,99.71 89.45,100.87 87.30,101.89 85.08,102.78 82.82,103.52 80.51,104.12 78.17,104.57 75.81,104.87 73.43,105.02 71.04,105.02 68.67,104.87 66.30,104.57 63.96,104.12 61.65,103.52 59.39,102.78 57.17,101.89 55.02,100.87 52.94,99.71 50.93,98.42 49.01,97.00 47.19,95.47 45.46,93.83 43.85,92.08 42.34,90.23 40.96,88.28 39.70,86.26 38.58,84.16 37.59,81.99 36.74,79.76 36.03,77.49 35.47,75.17 35.05,72.82 34.79,70.45 34.67,68.07 34.71,65.69 34.90,63.31 35.24,60.95 35.73,58.62 36.36,56.32 37.14,54.07 38.06,51.87 39.12,49.73 40.31,47.67 41.64,45.68 43.08,43.79 44.64,41.99 46.31,40.29 48.09,38.70 49.96,37.22 51.93,35.87 53.97,34.65 56.09,33.56 58.27,32.60 60.51,31.78 62.80,31.11 65.13,30.59 67.48,30.21 69.85,29.98 72.24,29.91 "
     style="fill:none;stroke:#ffffff;stroke-width:1.07;stroke-linecap:butt;stroke-linejoin:round;stroke-miterlimit:10"
     id="polyline16"
     clip-path="url(#clipPath51)"
     transform="matrix(14.213317,0,0,14.213317,222.68135,491.7602)" /><polyline
     points="72.24,11.68 75.77,11.79 79.30,12.13 82.80,12.69 86.25,13.47 89.65,14.46 92.97,15.68 96.22,17.10 99.36,18.72 102.40,20.54 105.32,22.54 108.10,24.73 110.74,27.09 113.22,29.62 115.54,32.29 117.69,35.11 119.65,38.06 121.42,41.12 122.99,44.30 124.36,47.56 125.52,50.91 126.46,54.32 127.18,57.79 127.69,61.29 127.97,64.82 128.03,68.36 127.86,71.90 127.46,75.42 126.85,78.90 126.01,82.34 124.96,85.72 123.70,89.03 122.23,92.25 120.56,95.37 118.69,98.38 116.64,101.27 114.40,104.01 112.00,106.61 109.44,109.06 106.73,111.33 103.88,113.43 100.90,115.35 97.80,117.07 94.61,118.59 91.32,119.91 87.96,121.01 84.53,121.90 81.05,122.57 77.54,123.02 74.01,123.24 70.47,123.24 66.93,123.02 63.42,122.57 59.94,121.90 56.52,121.01 53.15,119.91 49.87,118.59 46.67,117.07 43.57,115.35 40.60,113.43 37.75,111.33 35.03,109.06 32.47,106.61 30.07,104.01 27.84,101.27 25.78,98.38 23.92,95.37 22.24,92.25 20.77,89.03 19.51,85.72 18.46,82.34 17.62,78.90 17.01,75.42 16.62,71.90 16.45,68.36 16.50,64.82 16.78,61.29 17.29,57.79 18.01,54.32 18.96,50.91 20.11,47.56 21.48,44.30 23.05,41.12 24.82,38.06 26.79,35.11 28.93,32.29 31.25,29.62 33.73,27.09 36.37,24.73 39.15,22.54 42.07,20.54 45.11,18.72 48.26,17.10 51.50,15.68 54.83,14.46 58.22,13.47 61.68,12.69 65.17,12.13 68.70,11.79 72.24,11.68 "
     style="fill:none;stroke:#ffffff;stroke-width:1.07;stroke-linecap:butt;stroke-linejoin:round;stroke-miterlimit:10"
     id="polyline17"
     clip-path="url(#clipPath50)"
     transform="matrix(14.213317,0,0,14.213317,222.68135,491.7602)" /><polygon
     points="91.74,59.4 81.33,63.71 81.56,44.95 86.26,33.61 "
     style="fill:#b3dee5;fill-opacity:0.5;stroke:#b3dee5;stroke-width:0;stroke-linecap:round;stroke-linejoin:round;stroke-miterlimit:10;stroke-opacity:0.5"
     id="polygon17"
     clip-path="url(#clipPath49)"
     transform="matrix(14.213317,0,0,14.213317,222.68135,491.7602)" /><polygon
     points="118.06,86.45 105.63,81.31 81.33,63.71 91.74,59.4 "
     style="fill:#b3dee5;fill-opacity:0.5;stroke:#b3dee5;stroke-width:0;stroke-linecap:round;stroke-linejoin:round;stroke-miterlimit:10;stroke-opacity:0.5"
     id="polygon18"
     clip-path="url(#clipPath48)"
     transform="matrix(14.213317,0,0,14.213317,222.68135,491.7602)" /><polygon
     points="82.53,92.32 78.19,81.86 105.63,81.31 118.06,86.45 "
     style="fill:#b3dee5;fill-opacity:0.5;stroke:#b3dee5;stroke-width:0;stroke-linecap:round;stroke-linejoin:round;stroke-miterlimit:10;stroke-opacity:0.5"
     id="polygon19"
     clip-path="url(#clipPath47)"
     transform="matrix(14.213317,0,0,14.213317,222.68135,491.7602)" /><polygon
     points="66.86,80.45 69.6,73.85 78.19,81.86 82.53,92.32 "
     style="fill:#b3dee5;fill-opacity:0.5;stroke:#b3dee5;stroke-width:0;stroke-linecap:round;stroke-linejoin:round;stroke-miterlimit:10;stroke-opacity:0.5"
     id="polygon20"
     clip-path="url(#clipPath46)"
     transform="matrix(14.213317,0,0,14.213317,222.68135,491.7602)" /><polygon
     points="59.86,72.6 66.37,69.91 69.6,73.85 66.86,80.45 "
     style="fill:#b3dee5;fill-opacity:0.5;stroke:#b3dee5;stroke-width:0;stroke-linecap:round;stroke-linejoin:round;stroke-miterlimit:10;stroke-opacity:0.5"
     id="polygon21"
     clip-path="url(#clipPath45)"
     transform="matrix(14.213317,0,0,14.213317,222.68135,491.7602)" /><polygon
     points="37.28,53 39.17,53.78 66.37,69.91 59.86,72.6 "
     style="fill:#b3dee5;fill-opacity:0.5;stroke:#b3dee5;stroke-width:0;stroke-linecap:round;stroke-linejoin:round;stroke-miterlimit:10;stroke-opacity:0.5"
     id="polygon22"
     clip-path="url(#clipPath44)"
     transform="matrix(14.213317,0,0,14.213317,222.68135,491.7602)" /><polygon
     points="67.23,55.38 72.24,67.48 39.17,53.78 37.28,53 "
     style="fill:#b3dee5;fill-opacity:0.5;stroke:#b3dee5;stroke-width:0;stroke-linecap:round;stroke-linejoin:round;stroke-miterlimit:10;stroke-opacity:0.5"
     id="polygon23"
     clip-path="url(#clipPath43)"
     transform="matrix(14.213317,0,0,14.213317,222.68135,491.7602)" /><polygon
     points="86.26,33.61 81.56,44.95 72.24,67.48 67.23,55.38 "
     style="fill:#b3dee5;fill-opacity:0.5;stroke:#b3dee5;stroke-width:0;stroke-linecap:round;stroke-linejoin:round;stroke-miterlimit:10;stroke-opacity:0.5"
     id="polygon24"
     clip-path="url(#clipPath42)"
     transform="matrix(14.213317,0,0,14.213317,222.68135,491.7602)" /><polyline
     points="84.78,37.19 84.85,62.25 111.36,83.68 81.12,88.93 67.01,80.09 64.04,70.87 37.53,53.10 70.67,63.70 84.78,37.19 "
     style="fill:none;stroke:#faac22;stroke-width:0.38;stroke-linecap:round;stroke-linejoin:round;stroke-miterlimit:10"
     id="polyline24"
     clip-path="url(#clipPath41)"
     transform="matrix(14.213317,0,0,14.213317,222.68135,491.7602)" /><circle
     cx="84.779999"
     cy="37.189999"
     r="5.3099999"
     style="fill:#faac22;stroke:#faac22;stroke-width:0.75;stroke-linecap:round;stroke-linejoin:round;stroke-miterlimit:10"
     id="circle24"
     clip-path="url(#clipPath40)"
     transform="matrix(7.1066585,0,0,7.1066585,825.18384,756.05682)" /><circle
     cx="84.849998"
     cy="62.25"
     r="5.3099999"
     style="fill:#faac22;stroke:#faac22;stroke-width:0.75;stroke-linecap:round;stroke-linejoin:round;stroke-miterlimit:10"
     id="circle25"
     clip-path="url(#clipPath39)"
     transform="matrix(7.1066585,0,0,7.1066585,825.68131,934.14969)" /><circle
     cx="111.36"
     cy="83.68"
     r="5.3099999"
     style="fill:#faac22;stroke:#faac22;stroke-width:0.75;stroke-linecap:round;stroke-linejoin:round;stroke-miterlimit:10"
     id="circle26"
     clip-path="url(#clipPath38)"
     transform="matrix(7.1066585,0,0,7.1066585,1014.0788,1086.4454)" /><circle
     cx="81.120003"
     cy="88.93"
     r="5.3099999"
     style="fill:#faac22;stroke:#faac22;stroke-width:0.75;stroke-linecap:round;stroke-linejoin:round;stroke-miterlimit:10"
     id="circle27"
     clip-path="url(#clipPath37)"
     transform="matrix(7.1066585,0,0,7.1066585,799.1735,1123.7553)" /><circle
     cx="67.010002"
     cy="80.089996"
     r="5.3099999"
     style="fill:#faac22;stroke:#faac22;stroke-width:0.75;stroke-linecap:round;stroke-linejoin:round;stroke-miterlimit:10"
     id="circle28"
     clip-path="url(#clipPath36)"
     transform="matrix(7.1066585,0,0,7.1066585,698.89855,1060.9325)" /><circle
     cx="64.040001"
     cy="70.870003"
     r="5.3099999"
     style="fill:#faac22;stroke:#faac22;stroke-width:0.75;stroke-linecap:round;stroke-linejoin:round;stroke-miterlimit:10"
     id="circle29"
     clip-path="url(#clipPath35)"
     transform="matrix(7.1066585,0,0,7.1066585,677.79176,995.4091)" /><circle
     cx="37.529999"
     cy="53.099998"
     r="5.3099999"
     style="fill:#faac22;stroke:#faac22;stroke-width:0.75;stroke-linecap:round;stroke-linejoin:round;stroke-miterlimit:10"
     id="circle30"
     clip-path="url(#clipPath34)"
     transform="matrix(7.1066585,0,0,7.1066585,489.39423,869.12375)" /><circle
     cx="70.669998"
     cy="63.700001"
     r="5.3099999"
     style="fill:#faac22;stroke:#faac22;stroke-width:0.75;stroke-linecap:round;stroke-linejoin:round;stroke-miterlimit:10"
     id="circle31"
     clip-path="url(#clipPath33)"
     transform="matrix(7.1066585,0,0,7.1066585,724.90889,944.45435)" /></g><circle
   style="fill:none;stroke:none;stroke-width:1.33333;stroke-linecap:round;stroke-linejoin:round"
   id="path2"
   cx="1882.5497"
   cy="-501.14053"
   r="1037.4581"
   transform="rotate(66.192461)" /><text
   xml:space="preserve"
   id="text248"
   style="font-style:normal;font-variant:normal;font-weight:normal;font-stretch:normal;font-size:266.667px;font-family:'Clear Sans';-inkscape-font-specification:'Clear Sans, Normal';font-variant-ligatures:normal;font-variant-caps:normal;font-variant-numeric:normal;font-variant-east-asian:normal;text-align:center;white-space:pre;display:inline;fill:#000000;fill-opacity:1;stroke:none;stroke-width:1.75748;stroke-linejoin:round"><textPath
     xlink:href="#path2"
     startOffset="50%"
     id="textPath2"><tspan
       id="tspan2-7">ggradar</tspan></textPath></text></svg>
